<svg width="29" height="29" viewBox="0 0 29 29" fill="none" xmlns="http://www.w3.org/2000/svg">
<rect x="14.1422" width="20" height="20" rx="5" transform="rotate(45 14.1422 0)" fill="#00D95F"/>
<path d="M13.2862 14.008C13.7662 14.008 14.1182 13.912 14.3422 13.72C14.5742 13.52 14.6902 13.268 14.6902 12.964V12.88C14.6902 12.536 14.5782 12.268 14.3542 12.076C14.1382 11.876 13.8382 11.776 13.4542 11.776C13.0862 11.776 12.7582 11.864 12.4702 12.04C12.1902 12.216 11.9462 12.464 11.7382 12.784L10.7302 11.872C10.8742 11.68 11.0302 11.5 11.1982 11.332C11.3742 11.156 11.5742 11.008 11.7982 10.888C12.0222 10.76 12.2742 10.66 12.5542 10.588C12.8342 10.516 13.1502 10.48 13.5022 10.48C13.9262 10.48 14.3102 10.532 14.6542 10.636C15.0062 10.732 15.3062 10.876 15.5542 11.068C15.8102 11.26 16.0062 11.492 16.1422 11.764C16.2782 12.028 16.3462 12.328 16.3462 12.664C16.3462 12.936 16.3022 13.18 16.2142 13.396C16.1342 13.612 16.0182 13.8 15.8662 13.96C15.7222 14.12 15.5502 14.252 15.3502 14.356C15.1582 14.452 14.9542 14.524 14.7382 14.572V14.644C14.9782 14.692 15.2062 14.768 15.4222 14.872C15.6382 14.976 15.8222 15.116 15.9742 15.292C16.1342 15.46 16.2582 15.66 16.3462 15.892C16.4422 16.124 16.4902 16.388 16.4902 16.684C16.4902 17.052 16.4142 17.388 16.2622 17.692C16.1182 17.996 15.9102 18.256 15.6382 18.472C15.3662 18.688 15.0422 18.856 14.6662 18.976C14.2902 19.088 13.8702 19.144 13.4062 19.144C12.9982 19.144 12.6382 19.1 12.3262 19.012C12.0142 18.932 11.7382 18.82 11.4982 18.676C11.2662 18.532 11.0622 18.368 10.8862 18.184C10.7102 17.992 10.5582 17.792 10.4302 17.584L11.5942 16.696C11.6902 16.864 11.7942 17.02 11.9062 17.164C12.0182 17.3 12.1462 17.42 12.2902 17.524C12.4342 17.628 12.5982 17.708 12.7822 17.764C12.9662 17.82 13.1742 17.848 13.4062 17.848C13.8702 17.848 14.2262 17.736 14.4742 17.512C14.7222 17.288 14.8462 16.98 14.8462 16.588V16.504C14.8462 16.12 14.7102 15.828 14.4382 15.628C14.1742 15.428 13.7902 15.328 13.2862 15.328H12.4582V14.008H13.2862Z" fill="white"/>
</svg>
