<svg width="29" height="29" viewBox="0 0 29 29" fill="none" xmlns="http://www.w3.org/2000/svg">
<rect x="14.1421" width="20" height="20" rx="5" transform="rotate(45 14.1421 0)" fill="#009BD6"/>
<path d="M16.6941 19H10.8861V17.536L13.5141 15.232C13.9621 14.84 14.2901 14.488 14.4981 14.176C14.7061 13.856 14.8101 13.512 14.8101 13.144V12.988C14.8101 12.62 14.6901 12.34 14.4501 12.148C14.2101 11.948 13.9181 11.848 13.5741 11.848C13.1421 11.848 12.8141 11.972 12.5901 12.22C12.3661 12.46 12.2061 12.752 12.1101 13.096L10.7421 12.568C10.8301 12.288 10.9541 12.024 11.1141 11.776C11.2741 11.52 11.4741 11.296 11.7141 11.104C11.9621 10.912 12.2501 10.76 12.5781 10.648C12.9061 10.536 13.2821 10.48 13.7061 10.48C14.1461 10.48 14.5381 10.544 14.8821 10.672C15.2261 10.792 15.5141 10.964 15.7461 11.188C15.9861 11.412 16.1661 11.676 16.2861 11.98C16.4141 12.284 16.4781 12.616 16.4781 12.976C16.4781 13.328 16.4221 13.648 16.3101 13.936C16.1981 14.224 16.0461 14.5 15.8541 14.764C15.6621 15.02 15.4381 15.268 15.1821 15.508C14.9261 15.74 14.6541 15.976 14.3661 16.216L12.6021 17.668H16.6941V19Z" fill="white"/>
</svg>
