<svg width="52" height="40" viewBox="0 0 52 40" fill="none" xmlns="http://www.w3.org/2000/svg">
<g clip-path="url(#clip0_7_138)">
<path d="M20.0725 36.2518L23.1444 34.6027C23.337 34.9511 23.5996 35.2977 23.9661 35.5738C24.4184 35.9147 25.0136 36.1365 25.7943 36.1365C26.6137 36.1365 27.3164 35.8767 27.8301 35.3696C28.3423 34.864 28.6427 34.1362 28.7047 33.2428L28.7467 32.6388L28.2908 33.0372C27.7792 33.4844 26.9469 33.8467 25.6532 33.8467C22.5184 33.8467 19.9919 31.44 19.9919 28.0451C19.9919 24.7765 22.6748 22.1024 26.2183 22.1024C29.8568 22.1024 32.4439 24.6134 32.4439 28.0684V32.7309C32.4439 34.7905 31.7298 36.4792 30.5593 37.6525C29.3883 38.8263 27.7465 39.4984 25.8648 39.4984C23.1218 39.4984 21.1375 38.3293 20.0725 36.2518ZM40.3441 34.0824C36.8038 34.0824 34.1184 31.364 34.1184 28.0684C34.1184 24.798 36.8032 22.0784 40.3441 22.0784C43.8842 22.0784 46.5697 24.798 46.5697 28.0684C46.5697 31.364 43.8843 34.0824 40.3441 34.0824ZM40.3441 30.6027C41.8358 30.6027 42.8312 29.4422 42.8312 28.0924C42.8312 26.7203 41.8383 25.558 40.3441 25.558C38.8499 25.558 37.857 26.7203 37.857 28.0916C37.857 29.4421 38.8515 30.6027 40.3441 30.6027ZM26.147 30.3671C27.5445 30.3671 28.6341 29.3961 28.6341 27.9505C28.6341 26.5236 27.5388 25.5813 26.147 25.5813C24.7809 25.5813 23.6606 26.522 23.6606 27.9505C23.6606 29.3978 24.776 30.3671 26.147 30.3671ZM12.5521 34.0824C9.01183 34.0824 6.32643 31.364 6.32643 28.0684C6.32643 24.798 9.01122 22.0784 12.5521 22.0784C16.0922 22.0784 18.7777 24.798 18.7777 28.0684C18.7777 31.364 16.0923 34.0824 12.5521 34.0824ZM12.5521 30.6027C14.0439 30.6027 15.0392 29.4422 15.0392 28.0924C15.0392 26.7203 14.0463 25.558 12.5521 25.558C11.0579 25.558 10.065 26.7203 10.065 28.0916C10.065 29.4421 11.0595 30.6027 12.5521 30.6027ZM0.431885 17.0391H4.17043V33.7289H0.431885V17.0391ZM51.3748 23.2727C51.3748 23.5922 51.2479 23.8986 51.022 24.1245C50.7961 24.3504 50.4897 24.4773 50.1703 24.4773C49.8508 24.4773 49.5444 24.3504 49.3185 24.1245C49.0926 23.8986 48.9657 23.5922 48.9657 23.2727C48.9657 22.9533 49.0926 22.6469 49.3185 22.421C49.5444 22.1951 49.8508 22.0682 50.1703 22.0682C50.4897 22.0682 50.7961 22.1951 51.022 22.421C51.2479 22.6469 51.3748 22.9533 51.3748 23.2727Z" fill="#113441" stroke="white" stroke-width="0.5"/>
<path fill-rule="evenodd" clip-rule="evenodd" d="M40.0291 7.0291C44.2083 11.2082 46.6985 16.7824 47.0226 22.6836C45.7878 21.2385 44.1104 20.2415 42.251 19.8473C41.4036 15.9311 39.3785 12.3679 36.4475 9.63598C33.5165 6.90403 29.8199 5.13408 25.8539 4.56373C21.888 3.99337 17.8424 4.64991 14.2604 6.4452C10.6783 8.2405 7.73119 11.0886 5.81459 14.6073H0.97168C2.50874 10.9926 4.90949 7.81043 7.96325 5.34001C11.017 2.8696 14.6304 1.18646 18.4864 0.438291C22.3424 -0.309874 26.3231 -0.10019 30.0792 1.04894C33.8352 2.19807 37.2518 4.25153 40.0291 7.0291Z" fill="#FFD43E"/>
<path fill-rule="evenodd" clip-rule="evenodd" d="M36.9433 10.1149C39.6105 12.782 41.4531 16.1607 42.2509 19.8473C41.6386 19.7164 41 19.6465 40.344 19.6465C39.4568 19.6465 38.6029 19.7731 37.8008 20.0095C36.9064 16.7012 34.9252 13.7899 32.176 11.7438C29.4268 9.69773 26.0693 8.63579 22.6435 8.7288C19.2178 8.82182 15.9228 10.0644 13.2887 12.2566C10.6546 14.4488 8.83432 17.4633 8.12075 20.8153C7.57533 21.1291 7.06609 21.502 6.60221 21.9273V14.6073H5.81384C7.27426 11.926 9.33981 9.62221 11.8464 7.87892C14.353 6.13563 17.2316 5.00087 20.2535 4.56477C23.2754 4.12867 26.3573 4.40326 29.2545 5.36671C32.1517 6.33017 34.7844 7.95595 36.9433 10.1149Z" fill="#EE8E1D"/>
<path d="M33.859 22.464C33.5246 20.1111 32.431 17.9317 30.7444 16.2573C29.0579 14.5829 26.8707 13.5051 24.5154 13.1877C22.1602 12.8702 19.7657 13.3307 17.696 14.4989C15.6264 15.6671 13.9949 17.4792 13.0496 19.6596C15.6387 19.7993 17.9005 21.0218 19.3827 22.8676C20.9623 20.9113 23.4285 19.6705 26.2183 19.6705C29.2074 19.6705 31.7761 20.9811 33.3216 23.1164C33.4896 22.8902 33.6692 22.6727 33.859 22.464Z" fill="#971C1C"/>
<path fill-rule="evenodd" clip-rule="evenodd" d="M37.8001 20.0095C36.2864 20.4516 34.9229 21.3006 33.8583 22.464C33.5237 20.1114 32.43 17.9323 30.7435 16.2582C29.057 14.584 26.87 13.5063 24.515 13.1889C22.1599 12.8715 19.7656 13.3318 17.6961 14.4998C15.6266 15.6677 13.9951 17.4795 13.0496 19.6596C12.8839 19.6508 12.718 19.6465 12.5521 19.6466C10.9252 19.6466 9.41249 20.0727 8.12085 20.8153C8.83501 17.4638 10.6555 14.4499 13.2896 12.2582C15.9237 10.0664 19.2183 8.82419 22.6437 8.73118C26.0691 8.63818 29.4263 9.69983 32.1754 11.7454C34.9246 13.791 36.9059 16.7017 37.8008 20.0095H37.8001Z" fill="#D62727"/>
</g>
<defs>
<clipPath id="clip0_7_138">
<rect width="51.6364" height="40" fill="white" transform="translate(0.181885)"/>
</clipPath>
</defs>
</svg>
